<svg width="240" height="196" viewBox="0 0 240 196" fill="none" xmlns="http://www.w3.org/2000/svg">
<path d="M75.4632 168.954C73.1108 169.252 71.2921 168.225 70.0068 165.872C68.7835 163.511 67.8477 159.604 67.1992 154.152C66.2413 146.096 66.4765 138.299 67.9049 130.759C68.2483 128.891 68.9912 127.476 70.1335 126.514C71.3303 125.481 73.074 124.82 75.3644 124.53C76.6025 124.373 77.4876 124.418 78.0197 124.665C78.5518 124.912 78.8694 125.469 78.9726 126.336C79.0905 127.328 78.8914 129.617 78.3755 133.205C78.0512 135.762 77.8139 137.994 77.6635 139.9C77.5131 141.806 77.4762 144.137 77.5528 146.895C78.962 141.307 80.7367 136.68 82.8768 133.012C85.017 129.344 87.2095 126.644 89.4543 124.913C91.761 123.174 93.9358 122.175 95.9786 121.916C100.002 121.406 102.254 123.165 102.733 127.192C102.829 127.998 102.782 129.985 102.593 133.154C102.393 135.695 102.329 137.276 102.403 137.895C102.661 140.064 103.564 141.05 105.111 140.854C106.845 140.634 108.911 138.989 111.311 135.917C112.02 135.009 112.808 134.501 113.674 134.391C114.479 134.289 115.142 134.582 115.664 135.271C116.24 135.889 116.598 136.788 116.738 137.965C117.011 140.257 116.606 142.133 115.522 143.591C114.003 145.608 112.144 147.416 109.947 149.015C107.803 150.545 105.432 151.475 102.832 151.804C99.5509 152.22 96.9443 151.701 95.012 150.248C93.1417 148.787 92.037 146.631 91.6981 143.781C91.5875 142.852 91.5699 141.91 91.645 140.957C91.6215 139.702 91.5839 138.858 91.5323 138.424C91.4144 137.433 91.015 136.98 90.334 137.067C89.4055 137.184 88.2927 138.395 86.9956 140.698C85.753 142.931 84.5915 145.846 83.5111 149.442C82.4307 153.038 81.6509 156.785 81.1718 160.683C80.8372 163.681 80.2682 165.766 79.4649 166.937C78.7162 168.039 77.3823 168.711 75.4632 168.954ZM150.022 137.991C150.826 137.889 151.49 138.182 152.011 138.871C152.595 139.552 152.964 140.543 153.119 141.844C153.414 144.322 153.054 146.318 152.04 147.83C150.081 150.909 147.137 153.892 143.207 156.781C139.34 159.661 135.023 161.403 130.256 162.008C123.756 162.832 118.501 161.705 114.49 158.629C110.48 155.552 108.11 150.946 107.38 144.812C106.872 140.537 107.298 136.457 108.658 132.574C110.012 128.628 112.138 125.371 115.037 122.802C117.998 120.225 121.491 118.682 125.514 118.172C129.105 117.716 132.112 118.436 134.537 120.33C136.954 122.162 138.38 124.906 138.815 128.562C139.323 132.837 138.214 136.72 135.487 140.211C132.815 143.632 127.933 146.704 120.842 149.427C122.729 152.081 125.839 153.133 130.172 152.584C132.958 152.231 136.001 150.87 139.301 148.502C142.656 146.064 145.445 143.1 147.669 139.61C148.309 138.648 149.093 138.109 150.022 137.991ZM125.019 127.48C122.729 127.771 120.937 129.35 119.644 132.219C118.414 135.079 118.023 138.4 118.472 142.179L118.494 142.365C122.044 141.035 124.767 139.369 126.666 137.367C128.564 135.365 129.377 133.218 129.105 130.925C128.965 129.748 128.514 128.861 127.752 128.266C127.044 127.601 126.133 127.339 125.019 127.48ZM186.475 133.369C187.28 133.267 187.943 133.561 188.465 134.249C189.049 134.93 189.418 135.921 189.572 137.222C189.867 139.701 189.508 141.696 188.493 143.209C186.535 146.287 183.59 149.271 179.661 152.159C175.793 155.04 171.476 156.782 166.71 157.386C160.21 158.21 154.954 157.084 150.944 154.007C146.933 150.93 144.563 146.325 143.834 140.191C143.325 135.915 143.751 131.836 145.112 127.952C146.465 124.007 148.591 120.75 151.49 118.181C154.452 115.604 157.944 114.06 161.968 113.55C165.558 113.095 168.566 113.814 170.99 115.709C173.408 117.541 174.834 120.285 175.268 123.94C175.777 128.216 174.668 132.099 171.941 135.589C169.269 139.01 164.387 142.082 157.296 144.805C159.182 147.459 162.292 148.512 166.626 147.962C169.411 147.609 172.454 146.248 175.754 143.88C179.109 141.442 181.898 138.478 184.123 134.989C184.762 134.027 185.547 133.487 186.475 133.369ZM161.473 122.859C159.182 123.149 157.39 124.729 156.098 127.597C154.867 130.458 154.476 133.778 154.926 137.558L154.948 137.744C158.497 136.413 161.221 134.747 163.119 132.745C165.018 130.743 165.831 128.596 165.558 126.304C165.418 125.126 164.967 124.24 164.205 123.645C163.498 122.98 162.587 122.718 161.473 122.859ZM215.089 132.572C215.894 132.47 216.557 132.764 217.079 133.452C217.662 134.133 218.031 135.124 218.186 136.425C218.451 138.656 218.154 140.643 217.293 142.388C215.876 145.272 213.833 147.638 211.162 149.486C208.553 151.327 205.299 152.494 201.399 152.988C195.456 153.742 190.634 152.561 186.933 149.445C183.225 146.267 181.01 141.642 180.287 135.569C179.779 131.294 180.205 127.214 181.566 123.331C182.919 119.385 185.045 116.128 187.944 113.559C190.905 110.982 194.398 109.439 198.421 108.929C202.012 108.474 205.019 109.193 207.444 111.087C209.861 112.919 211.287 115.663 211.722 119.319C212.23 123.594 211.121 127.477 208.394 130.968C205.722 134.389 200.809 137.465 193.657 140.195C195.481 142.857 198.158 143.965 201.686 143.517C204.224 143.196 206.228 142.344 207.698 140.963C209.229 139.573 210.912 137.347 212.747 134.284C213.38 133.261 214.16 132.69 215.089 132.572ZM197.926 118.238C195.636 118.528 193.844 120.107 192.551 122.976C191.321 125.836 190.93 129.157 191.379 132.936L191.402 133.122C194.951 131.792 197.675 130.126 199.573 128.124C201.471 126.122 202.284 123.975 202.012 121.682C201.872 120.505 201.421 119.619 200.659 119.023C199.951 118.358 199.04 118.096 197.926 118.238Z" fill="#472E50"/>
<path d="M28.6936 120.248C26.3412 120.546 24.5224 119.519 23.2372 117.166C22.0139 114.805 21.078 110.898 20.4296 105.446C19.4717 97.3904 19.7069 89.5927 21.1352 82.0526C21.4787 80.1851 22.2215 78.77 23.3638 77.8075C24.5607 76.7752 26.3043 76.1139 28.5948 75.8235C29.8329 75.6666 30.718 75.7116 31.25 75.9586C31.7821 76.2057 32.0997 76.7629 32.2029 77.6304C32.3208 78.6218 32.1218 80.9114 31.6059 84.499C31.2816 87.0561 31.0442 89.2876 30.8939 91.1936C30.7435 93.0995 30.7066 95.4314 30.7832 98.1892C32.1923 92.6014 33.967 87.9736 36.1072 84.3058C38.2474 80.638 40.4399 77.9385 42.6847 76.2072C44.9914 74.4681 47.1661 73.4691 49.209 73.2101C53.2328 72.7 55.4842 74.4588 55.9631 78.4864C56.0589 79.2919 56.0125 81.2791 55.8237 84.4479C55.6233 86.9892 55.5598 88.5697 55.6335 89.1893C55.8914 91.358 56.7942 92.3443 58.3418 92.1481C60.0751 91.9283 62.1416 90.2826 64.5412 87.2109C65.2501 86.3034 66.0379 85.7946 66.9046 85.6848C67.7094 85.5827 68.3726 85.876 68.8944 86.5647C69.4707 87.1835 69.8288 88.0815 69.9688 89.2588C70.2415 91.5515 69.8361 93.4269 68.7528 94.8851C67.2331 96.9018 65.3745 98.7099 63.1768 100.309C61.0338 101.839 58.6622 102.769 56.0622 103.098C52.7813 103.514 50.1747 102.996 48.2424 101.542C46.372 100.081 45.2674 97.9254 44.9284 95.0751C44.8179 94.1456 44.8002 93.2044 44.8754 92.2514C44.8518 90.9965 44.8142 90.1521 44.7627 89.7184C44.6448 88.7269 44.2453 88.2744 43.5644 88.3607C42.6358 88.4784 41.523 89.6888 40.2259 91.9917C38.9834 94.2249 37.8219 97.1396 36.7415 100.736C35.661 104.332 34.8813 108.079 34.4022 111.977C34.0675 114.975 33.4986 117.06 32.6953 118.231C31.9465 119.333 30.6126 120.005 28.6936 120.248ZM75.7792 114.279C71.9411 114.765 68.7111 113.76 66.089 111.262C63.467 108.764 61.887 105.253 61.3491 100.73C60.7596 95.7727 61.3485 90.9492 63.1158 86.2595C64.8757 81.5077 67.4853 77.5603 70.9447 74.4171C74.4585 71.2041 78.3512 69.3269 82.6226 68.7854C83.9845 68.6127 84.9153 68.7778 85.4149 69.2805C85.9691 69.7134 86.482 70.5919 86.9536 71.9158C88.2241 71.5031 89.5713 71.2066 90.9951 71.0261C94.0284 70.6415 95.674 71.5336 95.9319 73.7023C96.0867 75.0035 95.9908 78.1606 95.6444 83.1734C95.068 90.4797 94.9455 95.527 95.2771 98.3154C95.3877 99.2448 95.6928 99.9609 96.1924 100.464C96.754 100.959 97.4062 101.159 98.149 101.065C99.3252 100.916 100.661 99.9915 102.155 98.2925C103.642 96.5315 105.607 93.7665 108.049 89.9976C108.689 89.0359 109.473 88.4962 110.402 88.3785C111.207 88.2764 111.87 88.5697 112.392 89.2584C112.975 89.9391 113.344 90.9302 113.499 92.2314C113.794 94.7099 113.434 96.7053 112.42 98.2177C110.258 101.7 107.882 104.705 105.292 107.235C102.703 109.765 100.077 111.198 97.4148 111.536C95.372 111.795 93.4028 111.353 91.5074 110.209C89.6665 108.996 88.169 107.236 87.015 104.929C84.4149 110.542 80.6697 113.659 75.7792 114.279ZM78.0057 104.468C79.3676 104.295 80.5718 103.325 81.6183 101.557C82.6648 99.7885 83.3082 97.537 83.5485 94.8019L84.9505 77.2645C82.3579 77.656 80.0615 78.9535 78.0614 81.1569C76.1158 83.2905 74.6772 85.9888 73.7456 89.2518C72.814 92.5148 72.5546 95.8812 72.9672 99.3512C73.1956 101.272 73.7365 102.65 74.5899 103.485C75.5052 104.313 76.6438 104.64 78.0057 104.468ZM125.49 110.052C122.271 110.46 119.706 110.031 117.796 108.763C115.948 107.488 114.913 105.921 114.692 104.062C114.5 102.451 114.923 100.982 115.959 99.656C116.995 98.3296 118.658 97.5212 120.949 97.2308C121.753 97.1288 122.693 97.104 123.768 97.1565C124.897 97.1391 125.743 97.1261 126.308 97.1175C126.054 95.5142 125.502 94.0432 124.652 92.7044C123.863 91.3577 122.897 90.0966 121.751 88.9209C120.599 87.6833 119.53 86.6237 118.546 85.7421C117.061 89.6413 115.503 92.9208 113.872 95.5806C112.302 98.2326 110.532 100.784 108.561 103.236C107.579 104.492 106.47 105.199 105.232 105.356C104.241 105.481 103.396 105.243 102.696 104.64C101.988 103.974 101.572 103.115 101.447 102.062C101.299 100.823 101.596 99.6213 102.338 98.4581L103.368 96.8179C106.272 92.1728 108.428 88.3771 109.837 85.431C110.738 83.4928 111.598 81.2138 112.417 78.594C113.299 75.9663 114.414 72.3971 115.762 67.8861C116.614 65.0106 118.898 63.3374 122.612 62.8666C124.345 62.6468 125.571 62.6487 126.289 62.8722C127.006 63.0957 127.406 63.5482 127.487 64.2298C127.531 64.6016 127.477 65.2059 127.325 66.0428C127.174 66.8798 126.929 67.7285 126.591 68.5889C125.742 70.9609 125.41 72.9214 125.594 74.4705C125.705 75.3999 126.136 76.3831 126.887 77.4199C127.701 78.4489 128.888 79.7136 130.449 81.214C132.74 83.5653 134.49 85.6076 135.702 87.341C136.968 89.0045 137.73 90.9206 137.988 93.0893C138.297 95.6918 137.973 98.2488 137.015 100.76C136.112 103.202 134.661 105.273 132.664 106.973C130.667 108.673 128.275 109.699 125.49 110.052Z" fill="#472E50"/>
<path d="M78.432 164.335C76.0796 164.633 74.2608 163.606 72.9756 161.253C71.7523 158.892 70.8164 154.985 70.168 149.532C69.2101 141.477 69.4453 133.68 70.8736 126.139C71.2171 124.272 71.96 122.857 73.1023 121.894C74.2991 120.862 76.0428 120.201 78.3332 119.91C79.5713 119.753 80.4564 119.798 80.9885 120.045C81.5206 120.292 81.8382 120.85 81.9413 121.717C82.0592 122.709 81.8602 124.998 81.3443 128.586C81.02 131.143 80.7827 133.374 80.6323 135.28C80.4819 137.186 80.445 139.518 80.5216 142.276C81.9308 136.688 83.7054 132.06 85.8456 128.393C87.9858 124.725 90.1783 122.025 92.4231 120.294C94.7298 118.555 96.9046 117.556 98.9474 117.297C102.971 116.787 105.223 118.546 105.702 122.573C105.797 123.379 105.751 125.366 105.562 128.535C105.362 131.076 105.298 132.656 105.372 133.276C105.63 135.445 106.533 136.431 108.08 136.235C109.814 136.015 111.88 134.369 114.28 131.298C114.989 130.39 115.776 129.881 116.643 129.772C117.448 129.67 118.111 129.963 118.633 130.651C119.209 131.27 119.567 132.168 119.707 133.346C119.98 135.638 119.575 137.514 118.491 138.972C116.972 140.989 115.113 142.797 112.915 144.396C110.772 145.926 108.401 146.855 105.801 147.185C102.52 147.601 99.9131 147.082 97.9808 145.629C96.1105 144.168 95.0058 142.012 94.6668 139.162C94.5563 138.232 94.5386 137.291 94.6138 136.338C94.5903 135.083 94.5527 134.239 94.5011 133.805C94.3832 132.814 93.9838 132.361 93.3028 132.448C92.3743 132.565 91.2614 133.776 89.9644 136.079C88.7218 138.312 87.5603 141.226 86.4799 144.823C85.3994 148.419 84.6197 152.166 84.1406 156.064C83.806 159.062 83.237 161.147 82.4337 162.318C81.6849 163.419 80.351 164.092 78.432 164.335ZM152.99 133.372C153.795 133.27 154.458 133.563 154.98 134.252C155.564 134.932 155.933 135.923 156.088 137.225C156.382 139.703 156.023 141.699 155.009 143.211C153.05 146.29 150.106 149.273 146.176 152.161C142.309 155.042 137.991 156.784 133.225 157.388C126.725 158.213 121.47 157.086 117.459 154.009C113.449 150.933 111.079 146.327 110.349 140.193C109.841 135.917 110.267 131.838 111.627 127.954C112.98 124.009 115.107 120.752 118.006 118.183C120.967 115.606 124.459 114.063 128.483 113.552C132.074 113.097 135.081 113.817 137.506 115.711C139.923 117.543 141.349 120.287 141.784 123.943C142.292 128.218 141.183 132.101 138.456 135.592C135.784 139.012 130.902 142.084 123.811 144.807C125.698 147.461 128.808 148.514 133.141 147.964C135.927 147.611 138.97 146.251 142.27 143.882C145.624 141.444 148.414 138.481 150.638 134.991C151.278 134.029 152.062 133.489 152.99 133.372ZM127.988 122.861C125.697 123.152 123.906 124.731 122.613 127.6C121.382 130.46 120.992 133.78 121.441 137.56L121.463 137.746C125.012 136.415 127.736 134.749 129.635 132.747C131.533 130.746 132.346 128.598 132.073 126.306C131.933 125.129 131.482 124.242 130.72 123.647C130.013 122.982 129.102 122.72 127.988 122.861ZM189.444 128.75C190.249 128.648 190.912 128.942 191.434 129.63C192.017 130.311 192.386 131.302 192.541 132.603C192.836 135.082 192.476 137.077 191.462 138.589C189.503 141.668 186.559 144.652 182.63 147.54C178.762 150.42 174.445 152.163 169.678 152.767C163.178 153.591 157.923 152.465 153.913 149.388C149.902 146.311 147.532 141.706 146.803 135.571C146.294 131.296 146.72 127.216 148.081 123.333C149.434 119.388 151.56 116.13 154.459 113.561C157.42 110.985 160.913 109.441 164.937 108.931C168.527 108.476 171.535 109.195 173.959 111.089C176.376 112.921 177.802 115.665 178.237 119.321C178.746 123.597 177.636 127.48 174.91 130.97C172.237 134.391 167.356 137.463 160.265 140.186C162.151 142.84 165.261 143.892 169.594 143.343C172.38 142.99 175.423 141.629 178.723 139.261C182.078 136.823 184.867 133.859 187.091 130.369C187.731 129.408 188.515 128.868 189.444 128.75ZM164.441 118.24C162.151 118.53 160.359 120.11 159.067 122.978C157.836 125.839 157.445 129.159 157.895 132.939L157.917 133.125C161.466 131.794 164.19 130.128 166.088 128.126C167.987 126.124 168.8 123.977 168.527 121.684C168.387 120.507 167.936 119.621 167.174 119.025C166.466 118.36 165.556 118.099 164.441 118.24ZM218.058 127.953C218.862 127.851 219.526 128.144 220.047 128.833C220.631 129.514 221 130.505 221.155 131.806C221.42 134.037 221.122 136.024 220.262 137.769C218.845 140.653 216.802 143.019 214.131 144.867C211.522 146.707 208.268 147.875 204.368 148.369C198.425 149.123 193.603 147.941 189.902 144.825C186.194 141.647 183.978 137.022 183.256 130.95C182.748 126.674 183.174 122.595 184.534 118.712C185.887 114.766 188.014 111.509 190.913 108.94C193.874 106.363 197.366 104.82 201.39 104.31C204.981 103.854 207.988 104.574 210.413 106.468C212.83 108.3 214.256 111.044 214.691 114.7C215.199 118.975 214.09 122.858 211.363 126.349C208.691 129.77 203.778 132.845 196.625 135.576C198.45 138.238 201.127 139.346 204.655 138.898C207.193 138.576 209.197 137.725 210.667 136.343C212.198 134.954 213.881 132.728 215.716 129.665C216.349 128.641 217.129 128.071 218.058 127.953ZM200.895 113.618C198.604 113.909 196.813 115.488 195.52 118.357C194.289 121.217 193.899 124.537 194.348 128.317L194.37 128.503C197.92 127.173 200.643 125.506 202.542 123.505C204.44 121.503 205.253 119.356 204.98 117.063C204.84 115.886 204.389 114.999 203.627 114.404C202.92 113.739 202.009 113.477 200.895 113.618Z" fill="#884D9F"/>
<path d="M31.6623 115.629C29.31 115.927 27.4912 114.9 26.206 112.547C24.9827 110.186 24.0468 106.279 23.3984 100.826C22.4404 92.7712 22.6756 84.9735 24.104 77.4334C24.4474 75.5658 25.1903 74.1508 26.3326 73.1883C27.5295 72.156 29.2731 71.4947 31.5636 71.2043C32.8017 71.0474 33.6867 71.0924 34.2188 71.3394C34.7509 71.5865 35.0685 72.1437 35.1717 73.0112C35.2896 74.0026 35.0906 76.2922 34.5746 79.8798C34.2503 82.4369 34.013 84.6684 33.8626 86.5744C33.7123 88.4803 33.6754 90.8122 33.752 93.57C35.1611 87.9822 36.9358 83.3544 39.076 79.6866C41.2162 76.0188 43.4086 73.3193 45.6534 71.588C47.9601 69.8489 50.1349 68.8499 52.1778 68.5909C56.2016 68.0808 58.4529 69.8396 58.9319 73.8672C59.0277 74.6727 58.9812 76.6599 58.7925 79.8287C58.592 82.37 58.5286 83.9505 58.6023 84.5701C58.8602 86.7388 59.763 87.7251 61.3106 87.5289C63.0439 87.3091 65.1104 85.6634 67.5099 82.5917C68.2189 81.6842 69.0067 81.1754 69.8734 81.0656C70.6781 80.9635 71.3414 81.2568 71.8632 81.9455C72.4394 82.5643 72.7976 83.4623 72.9376 84.6396C73.2102 86.9323 72.8049 88.8077 71.7215 90.2659C70.2019 92.2826 68.3433 94.0907 66.1456 95.6901C64.0025 97.2198 61.631 98.1494 59.031 98.479C55.7501 98.895 53.1435 98.3763 51.2112 96.923C49.3408 95.4619 48.2361 93.3062 47.8972 90.4559C47.7867 89.5264 47.769 88.5852 47.8442 87.6322C47.8206 86.3772 47.783 85.5329 47.7314 85.0992C47.6136 84.1077 47.2141 83.6552 46.5332 83.7415C45.6046 83.8592 44.4918 85.0696 43.1947 87.3725C41.9522 89.6057 40.7907 92.5204 39.7102 96.1168C38.6298 99.7131 37.85 103.46 37.371 107.358C37.0363 110.356 36.4674 112.441 35.6641 113.612C34.9153 114.713 33.5814 115.386 31.6623 115.629ZM78.748 109.66C74.9099 110.146 71.6798 109.14 69.0578 106.642C66.4357 104.145 64.8558 100.634 64.3178 96.1105C63.7284 91.1535 64.3173 86.33 66.0846 81.6402C67.8445 76.8885 70.4541 72.9411 73.9134 69.7979C77.4273 66.5849 81.3199 64.7077 85.5914 64.1662C86.9533 63.9935 87.884 64.1586 88.3837 64.6613C88.9379 65.0942 89.4508 65.9726 89.9224 67.2966C91.1929 66.8839 92.5401 66.5874 93.9639 66.4069C96.9972 66.0223 98.6428 66.9144 98.9007 69.0831C99.0555 70.3843 98.9596 73.5414 98.6132 78.5542C98.0367 85.8605 97.9143 90.9078 98.2459 93.6962C98.3564 94.6256 98.6615 95.3417 99.1612 95.8445C99.7227 96.3393 100.375 96.5397 101.118 96.4455C102.294 96.2964 103.629 95.3723 105.124 93.6733C106.611 91.9123 108.576 89.1473 111.018 85.3783C111.658 84.4167 112.442 83.877 113.371 83.7593C114.175 83.6572 114.839 83.9505 115.36 84.6392C115.944 85.3199 116.313 86.311 116.468 87.6122C116.763 90.0907 116.403 92.0861 115.389 93.5985C113.227 97.0804 110.851 100.086 108.261 102.616C105.671 105.146 103.046 106.579 100.384 106.917C98.3408 107.176 96.3716 106.733 94.4762 105.59C92.6353 104.377 91.1378 102.617 89.9838 100.31C87.3837 105.923 83.6384 109.04 78.748 109.66ZM80.9745 99.8483C82.3364 99.6757 83.5406 98.7053 84.5871 96.9373C85.6336 95.1693 86.277 92.9178 86.5173 90.1827L87.9193 72.6453C85.3267 73.0368 83.0303 74.3343 81.0301 76.5377C79.0845 78.6713 77.646 81.3696 76.7144 84.6326C75.7828 87.8956 75.5234 91.262 75.936 94.732C76.1644 96.6528 76.7053 98.0309 77.5587 98.8662C78.474 99.6936 79.6126 100.021 80.9745 99.8483ZM128.458 105.433C125.239 105.841 122.675 105.412 120.765 104.144C118.916 102.869 117.882 101.302 117.661 99.443C117.469 97.8319 117.891 96.3632 118.928 95.0368C119.964 93.7104 121.627 92.902 123.917 92.6116C124.722 92.5096 125.662 92.4848 126.736 92.5373C127.865 92.5199 128.712 92.5069 129.277 92.4982C129.023 90.895 128.471 89.424 127.621 88.0852C126.832 86.7385 125.865 85.4774 124.72 84.3017C123.568 83.0641 122.499 82.0045 121.514 81.1229C120.03 85.0221 118.472 88.3016 116.841 90.9614C115.271 93.6134 113.501 96.1651 111.53 98.6163C110.548 99.8729 109.438 100.58 108.2 100.737C107.21 100.862 106.365 100.623 105.664 100.02C104.957 99.3553 104.541 98.496 104.415 97.4427C104.268 96.2034 104.565 95.0021 105.306 93.8389L106.337 92.1987C109.24 87.5536 111.397 83.7579 112.806 80.8118C113.706 78.8736 114.567 76.5946 115.386 73.9748C116.267 71.3471 117.383 67.7778 118.731 63.2669C119.583 60.3914 121.866 58.7182 125.581 58.2474C127.314 58.0276 128.54 58.0295 129.257 58.253C129.975 58.4765 130.375 58.929 130.456 59.6106C130.5 59.9824 130.446 60.5867 130.294 61.4236C130.142 62.2606 129.898 63.1092 129.56 63.9697C128.711 66.3417 128.379 68.3022 128.563 69.8513C128.673 70.7807 129.105 71.7639 129.856 72.8007C130.67 73.8297 131.857 75.0944 133.418 76.5948C135.708 78.9461 137.459 80.9884 138.671 82.7218C139.937 84.3853 140.699 86.3014 140.957 88.4701C141.266 91.0726 140.942 93.6296 139.984 96.1412C139.08 98.5829 137.63 100.654 135.633 102.354C133.636 104.053 131.244 105.08 128.458 105.433Z" fill="#884D9F"/>
<path d="M82.432 160.335C80.0796 160.633 78.2608 159.606 76.9756 157.253C75.7523 154.892 74.8164 150.985 74.168 145.532C73.2101 137.477 73.4453 129.68 74.8736 122.139C75.2171 120.272 75.96 118.857 77.1023 117.894C78.2991 116.862 80.0428 116.201 82.3332 115.91C83.5713 115.753 84.4564 115.798 84.9885 116.045C85.5206 116.292 85.8382 116.85 85.9413 117.717C86.0592 118.709 85.8602 120.998 85.3443 124.586C85.02 127.143 84.7827 129.374 84.6323 131.28C84.4819 133.186 84.445 135.518 84.5216 138.276C85.9308 132.688 87.7054 128.06 89.8456 124.393C91.9858 120.725 94.1783 118.025 96.4231 116.294C98.7298 114.555 100.905 113.556 102.947 113.297C106.971 112.787 109.223 114.546 109.702 118.573C109.797 119.379 109.751 121.366 109.562 124.535C109.362 127.076 109.298 128.656 109.372 129.276C109.63 131.445 110.533 132.431 112.08 132.235C113.814 132.015 115.88 130.369 118.28 127.298C118.989 126.39 119.776 125.881 120.643 125.772C121.448 125.67 122.111 125.963 122.633 126.651C123.209 127.27 123.567 128.168 123.707 129.346C123.98 131.638 123.575 133.514 122.491 134.972C120.972 136.989 119.113 138.797 116.915 140.396C114.772 141.926 112.401 142.855 109.801 143.185C106.52 143.601 103.913 143.082 101.981 141.629C100.11 140.168 99.0058 138.012 98.6668 135.162C98.5563 134.232 98.5386 133.291 98.6138 132.338C98.5903 131.083 98.5527 130.239 98.5011 129.805C98.3832 128.814 97.9838 128.361 97.3028 128.448C96.3743 128.565 95.2614 129.776 93.9644 132.079C92.7218 134.312 91.5603 137.226 90.4799 140.823C89.3994 144.419 88.6197 148.166 88.1406 152.064C87.806 155.062 87.237 157.147 86.4337 158.318C85.6849 159.419 84.351 160.092 82.432 160.335ZM156.99 129.372C157.795 129.27 158.458 129.563 158.98 130.252C159.564 130.932 159.933 131.923 160.088 133.225C160.382 135.703 160.023 137.699 159.009 139.211C157.05 142.29 154.106 145.273 150.176 148.161C146.309 151.042 141.991 152.784 137.225 153.388C130.725 154.213 125.47 153.086 121.459 150.009C117.449 146.933 115.079 142.327 114.349 136.193C113.841 131.917 114.267 127.838 115.627 123.954C116.98 120.009 119.107 116.752 122.006 114.183C124.967 111.606 128.459 110.063 132.483 109.552C136.074 109.097 139.081 109.817 141.506 111.711C143.923 113.543 145.349 116.287 145.784 119.943C146.292 124.218 145.183 128.101 142.456 131.592C139.784 135.012 134.902 138.084 127.811 140.807C129.698 143.461 132.808 144.514 137.141 143.964C139.927 143.611 142.97 142.251 146.27 139.882C149.624 137.444 152.414 134.481 154.638 130.991C155.278 130.029 156.062 129.489 156.99 129.372ZM131.988 118.861C129.697 119.152 127.906 120.731 126.613 123.6C125.382 126.46 124.992 129.78 125.441 133.56L125.463 133.746C129.012 132.415 131.736 130.749 133.635 128.747C135.533 126.746 136.346 124.598 136.073 122.306C135.933 121.129 135.482 120.242 134.72 119.647C134.013 118.982 133.102 118.72 131.988 118.861ZM193.444 124.75C194.249 124.648 194.912 124.942 195.434 125.63C196.017 126.311 196.386 127.302 196.541 128.603C196.836 131.082 196.476 133.077 195.462 134.589C193.503 137.668 190.559 140.652 186.63 143.54C182.762 146.42 178.445 148.163 173.678 148.767C167.178 149.591 161.923 148.465 157.913 145.388C153.902 142.311 151.532 137.706 150.803 131.571C150.294 127.296 150.72 123.216 152.081 119.333C153.434 115.388 155.56 112.13 158.459 109.561C161.42 106.985 164.913 105.441 168.937 104.931C172.527 104.476 175.535 105.195 177.959 107.089C180.376 108.921 181.802 111.665 182.237 115.321C182.746 119.597 181.636 123.48 178.91 126.97C176.237 130.391 171.356 133.463 164.265 136.186C166.151 138.84 169.261 139.892 173.594 139.343C176.38 138.99 179.423 137.629 182.723 135.261C186.078 132.823 188.867 129.859 191.091 126.369C191.731 125.408 192.515 124.868 193.444 124.75ZM168.441 114.24C166.151 114.53 164.359 116.11 163.067 118.978C161.836 121.839 161.445 125.159 161.895 128.939L161.917 129.125C165.466 127.794 168.19 126.128 170.088 124.126C171.987 122.124 172.8 119.977 172.527 117.684C172.387 116.507 171.936 115.621 171.174 115.025C170.466 114.36 169.556 114.099 168.441 114.24ZM222.058 123.953C222.862 123.851 223.526 124.144 224.047 124.833C224.631 125.514 225 126.505 225.155 127.806C225.42 130.037 225.122 132.024 224.262 133.769C222.845 136.653 220.802 139.019 218.131 140.867C215.522 142.707 212.268 143.875 208.368 144.369C202.425 145.123 197.603 143.941 193.902 140.825C190.194 137.647 187.978 133.022 187.256 126.95C186.748 122.674 187.174 118.595 188.534 114.712C189.887 110.766 192.014 107.509 194.913 104.94C197.874 102.363 201.366 100.82 205.39 100.31C208.981 99.8544 211.988 100.574 214.413 102.468C216.83 104.3 218.256 107.044 218.691 110.7C219.199 114.975 218.09 118.858 215.363 122.349C212.691 125.77 207.778 128.845 200.625 131.576C202.45 134.238 205.127 135.346 208.655 134.898C211.193 134.576 213.197 133.725 214.667 132.343C216.198 130.954 217.881 128.728 219.716 125.665C220.349 124.641 221.129 124.071 222.058 123.953ZM204.895 109.618C202.604 109.909 200.813 111.488 199.52 114.357C198.289 117.217 197.899 120.537 198.348 124.317L198.37 124.503C201.92 123.173 204.643 121.506 206.542 119.505C208.44 117.503 209.253 115.356 208.98 113.063C208.84 111.886 208.389 110.999 207.627 110.404C206.92 109.739 206.009 109.477 204.895 109.618Z" fill="white"/>
<path d="M35.6623 111.629C33.31 111.927 31.4912 110.9 30.206 108.547C28.9827 106.186 28.0468 102.279 27.3984 96.8264C26.4404 88.7712 26.6756 80.9735 28.104 73.4334C28.4474 71.5658 29.1903 70.1508 30.3326 69.1883C31.5295 68.156 33.2731 67.4947 35.5636 67.2043C36.8017 67.0474 37.6867 67.0924 38.2188 67.3394C38.7509 67.5865 39.0685 68.1437 39.1717 69.0112C39.2896 70.0026 39.0906 72.2922 38.5746 75.8798C38.2503 78.4369 38.013 80.6684 37.8626 82.5744C37.7123 84.4803 37.6754 86.8122 37.752 89.57C39.1611 83.9822 40.9358 79.3544 43.076 75.6866C45.2162 72.0188 47.4086 69.3193 49.6534 67.588C51.9601 65.8489 54.1349 64.8499 56.1778 64.5909C60.2016 64.0808 62.4529 65.8396 62.9319 69.8672C63.0277 70.6727 62.9812 72.6599 62.7925 75.8287C62.592 78.37 62.5286 79.9505 62.6023 80.5701C62.8602 82.7388 63.763 83.7251 65.3106 83.5289C67.0439 83.3091 69.1104 81.6634 71.5099 78.5917C72.2189 77.6842 73.0067 77.1754 73.8734 77.0656C74.6781 76.9635 75.3414 77.2568 75.8632 77.9455C76.4394 78.5643 76.7976 79.4623 76.9376 80.6396C77.2102 82.9323 76.8049 84.8077 75.7215 86.2659C74.2019 88.2826 72.3433 90.0907 70.1456 91.6901C68.0025 93.2198 65.631 94.1494 63.031 94.479C59.7501 94.895 57.1435 94.3763 55.2112 92.923C53.3408 91.4619 52.2361 89.3062 51.8972 86.4559C51.7867 85.5264 51.769 84.5852 51.8442 83.6322C51.8206 82.3772 51.783 81.5329 51.7314 81.0992C51.6136 80.1077 51.2141 79.6552 50.5332 79.7415C49.6046 79.8592 48.4918 81.0696 47.1947 83.3725C45.9522 85.6057 44.7907 88.5204 43.7102 92.1168C42.6298 95.7131 41.85 99.46 41.371 103.358C41.0363 106.356 40.4674 108.441 39.6641 109.612C38.9153 110.713 37.5814 111.386 35.6623 111.629ZM82.748 105.66C78.9099 106.146 75.6798 105.14 73.0578 102.642C70.4357 100.145 68.8558 96.6339 68.3178 92.1105C67.7284 87.1535 68.3173 82.33 70.0846 77.6402C71.8445 72.8885 74.4541 68.9411 77.9134 65.7979C81.4273 62.5849 85.3199 60.7077 89.5914 60.1662C90.9533 59.9935 91.884 60.1586 92.3837 60.6613C92.9379 61.0942 93.4508 61.9726 93.9224 63.2966C95.1929 62.8839 96.5401 62.5874 97.9639 62.4069C100.997 62.0223 102.643 62.9144 102.901 65.0831C103.055 66.3843 102.96 69.5414 102.613 74.5542C102.037 81.8605 101.914 86.9078 102.246 89.6962C102.356 90.6256 102.662 91.3417 103.161 91.8445C103.723 92.3393 104.375 92.5397 105.118 92.4455C106.294 92.2964 107.629 91.3723 109.124 89.6733C110.611 87.9123 112.576 85.1473 115.018 81.3783C115.658 80.4167 116.442 79.877 117.371 79.7593C118.175 79.6572 118.839 79.9505 119.36 80.6392C119.944 81.3199 120.313 82.311 120.468 83.6122C120.763 86.0907 120.403 88.0861 119.389 89.5985C117.227 93.0804 114.851 96.0862 112.261 98.6159C109.671 101.146 107.046 102.579 104.384 102.917C102.341 103.176 100.372 102.733 98.4762 101.59C96.6353 100.377 95.1378 98.6168 93.9838 96.3101C91.3837 101.923 87.6384 105.04 82.748 105.66ZM84.9745 95.8483C86.3364 95.6757 87.5406 94.7053 88.5871 92.9373C89.6336 91.1693 90.277 88.9178 90.5173 86.1827L91.9193 68.6453C89.3267 69.0368 87.0303 70.3343 85.0301 72.5377C83.0845 74.6713 81.646 77.3696 80.7144 80.6326C79.7828 83.8956 79.5234 87.262 79.936 90.732C80.1644 92.6528 80.7053 94.0309 81.5587 94.8662C82.474 95.6936 83.6126 96.021 84.9745 95.8483ZM132.458 101.433C129.239 101.841 126.675 101.412 124.765 100.144C122.916 98.8689 121.882 97.3019 121.661 95.443C121.469 93.8319 121.891 92.3632 122.928 91.0368C123.964 89.7104 125.627 88.902 127.917 88.6116C128.722 88.5096 129.662 88.4848 130.736 88.5373C131.865 88.5199 132.712 88.5069 133.277 88.4982C133.023 86.895 132.471 85.424 131.621 84.0852C130.832 82.7385 129.865 81.4774 128.72 80.3017C127.568 79.0641 126.499 78.0045 125.514 77.1229C124.03 81.0221 122.472 84.3016 120.841 86.9614C119.271 89.6134 117.501 92.1651 115.53 94.6163C114.548 95.8729 113.438 96.5797 112.2 96.7367C111.21 96.8622 110.365 96.6235 109.664 96.0204C108.957 95.3553 108.541 94.496 108.415 93.4427C108.268 92.2034 108.565 91.0021 109.306 89.8389L110.337 88.1987C113.24 83.5536 115.397 79.7579 116.806 76.8118C117.706 74.8736 118.567 72.5946 119.386 69.9748C120.267 67.3471 121.383 63.7778 122.731 59.2669C123.583 56.3914 125.866 54.7182 129.581 54.2474C131.314 54.0276 132.54 54.0295 133.257 54.253C133.975 54.4765 134.375 54.929 134.456 55.6106C134.5 55.9824 134.446 56.5867 134.294 57.4236C134.142 58.2606 133.898 59.1092 133.56 59.9697C132.711 62.3417 132.379 64.3022 132.563 65.8513C132.673 66.7807 133.105 67.7639 133.856 68.8007C134.67 69.8297 135.857 71.0944 137.418 72.5948C139.708 74.9461 141.459 76.9884 142.671 78.7218C143.937 80.3853 144.699 82.3014 144.957 84.4701C145.266 87.0726 144.942 89.6296 143.984 92.1412C143.08 94.5829 141.63 96.6537 139.633 98.3536C137.636 100.053 135.244 101.08 132.458 101.433Z" fill="white"/>
</svg>
